D:\school\WTK\thesis\model\3dpredictsim\Results\batch_windlass\Pog_s1_tmt_aCst_d00_k1000_WL20_ig24_act_TTC_GRF.mot
nRows=17
nColumns=19

name D:\school\WTK\thesis\model\3dpredictsim\Results\batch_windlass\Pog_s1_tmt_aCst_d00_k1000_WL20_ig24_act_TTC_GRF.mot
datacolumns 19
datarows 17
range 0.5945630629 0.7848232430
endheader
time 	ground_force_vx	ground_force_vy	ground_force_vz	ground_force_px	ground_force_py	ground_force_pz	1_ground_force_vx	1_ground_force_vy	1_ground_force_vz	1_ground_force_px	1_ground_force_py	1_ground_force_pz	ground_torque_x	ground_torque_y	ground_torque_z	1_ground_torque_x	1_ground_torque_y	1_ground_torque_z
        0.5945630629	       88.0433693663	      365.4630129090	       -0.8502117381	        0.3717495057	        0.0000000000	        0.0341867391	      -38.1764499460	       27.1447636754	       -4.1547868579	        0.9084309840	        0.0000000000	       -0.0707832519	        0.0000000000	        0.0000000000	        0.0000000000	        0.0000000000	        0.0000000000	        0.0000000000	
        0.6064543242	       52.6630003969	      252.5687875483	        6.2937810678	        0.3839009725	        0.0000000000	        0.0285347379	      -99.8623386024	       82.9737769886	      -12.5502987234	        0.9226772113	        0.0000000000	       -0.0699487060	        0.0000000000	        0.0000000000	        0.0000000000	        0.0000000000	        0.0000000000	        0.0000000000	
        0.6183455854	       33.3476587706	      201.1082422136	       19.3038782694	        0.3885731696	        0.0000000000	        0.0265227868	     -165.3468995902	      270.9459024794	      -14.1952834037	        0.9390585182	        0.0000000000	       -0.0701894486	        0.0000000000	        0.0000000000	        0.0000000000	        0.0000000000	        0.0000000000	        0.0000000000	
        0.6302368467	       29.4069453736	      157.6926945869	       18.2393824015	        0.3888398907	        0.0000000000	        0.0264937184	     -120.5156950375	      623.9624908670	       17.0354364260	        0.9506393974	        0.0000000000	       -0.0685395034	        0.0000000000	        0.0000000000	        0.0000000000	        0.0000000000	        0.0000000000	        0.0000000000	
        0.6421281079	       15.8701132194	      101.3901989559	       16.8202936764	        0.3887054511	        0.0000000000	        0.0266920064	     -170.1426639284	      928.3015837820	       28.8007999233	        0.9651880644	        0.0000000000	       -0.0657717128	        0.0000000000	        0.0000000000	        0.0000000000	        0.0000000000	        0.0000000000	        0.0000000000	
        0.6540193692	       -4.2673915060	       40.6657007440	        8.4036750316	        0.3869569947	        0.0000000000	        0.0265005940	     -187.8032278167	      990.0689623685	       28.5951169640	        0.9713926027	        0.0000000000	       -0.0639486022	        0.0000000000	        0.0000000000	        0.0000000000	        0.0000000000	        0.0000000000	        0.0000000000	
        0.6659106304	       -1.6936172612	        1.6324319405	       -0.0986925130	        0.0000000000	        0.0000000000	        0.0000000000	     -166.0212670471	      933.4657109426	       26.6972311145	        0.9736074944	        0.0000000000	       -0.0631012692	        0.0000000000	        0.0000000000	        0.0000000000	        0.0000000000	        0.0000000000	        0.0000000000	
        0.6778018917	       -2.0287821507	        1.5927838170	       -0.1935276891	        0.0000000000	        0.0000000000	        0.0000000000	     -139.8271447004	      854.2679279686	       24.3216040832	        0.9762874029	        0.0000000000	       -0.0625472814	        0.0000000000	        0.0000000000	        0.0000000000	        0.0000000000	        0.0000000000	        0.0000000000	
        0.6896931530	       -2.8829019251	        1.9837496246	       -0.3023758120	        0.0000000000	        0.0000000000	        0.0000000000	     -124.0745080561	      791.2065278689	       22.5117104765	        0.9791846267	        0.0000000000	       -0.0621241193	        0.0000000000	        0.0000000000	        0.0000000000	        0.0000000000	        0.0000000000	        0.0000000000	
        0.7015844142	       -0.0864734063	        0.0537234182	       -0.0084219801	        0.0000000000	        0.0000000000	        0.0000000000	     -107.1353542920	      752.7778250079	       21.2275456644	        0.9813815876	        0.0000000000	       -0.0619306999	        0.0000000000	        0.0000000000	        0.0000000000	        0.0000000000	        0.0000000000	        0.0000000000	
        0.7134756755	       -0.0568697018	        0.0331251485	       -0.0048495092	        0.0000000000	        0.0000000000	        0.0000000000	      -91.2201016463	      716.5220947322	       20.6152588266	        0.9836806545	        0.0000000000	       -0.0617880057	        0.0000000000	        0.0000000000	        0.0000000000	        0.0000000000	        0.0000000000	        0.0000000000	
        0.7253669367	       -0.1920948882	        0.1078707364	       -0.0139318459	        0.0000000000	        0.0000000000	        0.0000000000	      -76.8894115939	      683.1455364682	       20.5871669857	        0.9862522996	        0.0000000000	       -0.0616556686	        0.0000000000	        0.0000000000	        0.0000000000	        0.0000000000	        0.0000000000	        0.0000000000	
        0.7372581980	       -0.1475050704	        0.0809713908	       -0.0086671452	        0.0000000000	        0.0000000000	        0.0000000000	      -64.2638813521	      658.1301053597	       21.6701891974	        0.9901461127	        0.0000000000	       -0.0613532084	        0.0000000000	        0.0000000000	        0.0000000000	        0.0000000000	        0.0000000000	        0.0000000000	
        0.7491494593	       -0.0771943037	        0.0407616886	       -0.0042774628	        0.0000000000	        0.0000000000	        0.0000000000	      -55.5301414680	      639.2715612721	       22.4044120979	        0.9952067350	        0.0000000000	       -0.0608326620	        0.0000000000	        0.0000000000	        0.0000000000	        0.0000000000	        0.0000000000	        0.0000000000	
        0.7610407205	       -0.0421765500	        0.0212520166	       -0.0023463551	        0.0000000000	        0.0000000000	        0.0000000000	      -48.5652698003	      625.0453648576	       22.8963916353	        1.0008901870	        0.0000000000	       -0.0601600041	        0.0000000000	        0.0000000000	        0.0000000000	        0.0000000000	        0.0000000000	        0.0000000000	
        0.7729319818	       -0.0280574202	        0.0134759043	       -0.0016321293	        0.0000000000	        0.0000000000	        0.0000000000	      -42.8601482733	      613.2606029186	       23.0006862681	        1.0068647287	        0.0000000000	       -0.0593785482	        0.0000000000	        0.0000000000	        0.0000000000	        0.0000000000	        0.0000000000	        0.0000000000	
        0.7848232430	       -0.0234417336	        0.0107867665	       -0.0013954638	        0.0000000000	        0.0000000000	        0.0000000000	      -37.9450645127	      602.7632763921	       22.4160382355	        1.0127672091	        0.0000000000	       -0.0585632523	        0.0000000000	        0.0000000000	        0.0000000000	        0.0000000000	        0.0000000000	        0.0000000000	
